<svg width="16" height="15" viewBox="0 0 16 15" fill="none" xmlns="http://www.w3.org/2000/svg">
<path d="M8.13587 0.351978C8.1718 0.241421 8.3282 0.241421 8.36413 0.351979L10.0753 5.61842C10.0914 5.66787 10.1374 5.70134 10.1894 5.70134H15.7269C15.8431 5.70134 15.8915 5.8501 15.7974 5.91842L11.3175 9.17327C11.2755 9.20382 11.2579 9.25799 11.2739 9.30743L12.9851 14.5739C13.021 14.6844 12.8945 14.7764 12.8004 14.708L8.32053 11.4532C8.27848 11.4226 8.22152 11.4226 8.17947 11.4532L3.69956 14.708C3.60551 14.7764 3.47898 14.6844 3.5149 14.5739L5.22607 9.30743C5.24214 9.25799 5.22454 9.20382 5.18248 9.17327L0.702572 5.91842C0.608526 5.8501 0.656859 5.70134 0.773106 5.70134H6.31057C6.36256 5.70134 6.40864 5.66787 6.4247 5.61842L8.13587 0.351978Z" fill="#FCC232"/>
</svg>
